<svg xmlns="http://www.w3.org/2000/svg" viewBox="0 0 900 600" role="img" aria-label="Fictional city transit illustration">
  <rect width="900" height="600" fill="#dbeafe"/>
  <rect y="390" width="900" height="210" fill="#bfdbfe"/>
  <rect x="72" y="150" width="130" height="290" fill="#1d4ed8"/>
  <rect x="240" y="90" width="150" height="350" fill="#2563eb"/>
  <rect x="430" y="130" width="110" height="310" fill="#0f766e"/>
  <rect x="582" y="180" width="170" height="260" fill="#14b8a6"/>
  <g fill="#eff6ff">
    <rect x="96" y="180" width="28" height="36"/><rect x="146" y="180" width="28" height="36"/>
    <rect x="274" y="130" width="30" height="38"/><rect x="330" y="130" width="30" height="38"/>
    <rect x="462" y="168" width="28" height="36"/><rect x="620" y="216" width="34" height="38"/><rect x="680" y="216" width="34" height="38"/>
  </g>
  <rect x="145" y="430" width="610" height="78" rx="24" fill="#111827"/>
  <rect x="195" y="446" width="130" height="34" rx="8" fill="#e0f2fe"/>
  <rect x="350" y="446" width="130" height="34" rx="8" fill="#e0f2fe"/>
  <rect x="505" y="446" width="130" height="34" rx="8" fill="#e0f2fe"/>
  <circle cx="255" cy="514" r="30" fill="#1f2937"/>
  <circle cx="645" cy="514" r="30" fill="#1f2937"/>
</svg>
